<?xml version="1.0" standalone="no"?><!DOCTYPE svg PUBLIC "-//W3C//DTD SVG 1.1//EN" "http://www.w3.org/Graphics/SVG/1.1/DTD/svg11.dtd"><svg t="1595323085341" class="icon" viewBox="0 0 1024 1024" version="1.1" xmlns="http://www.w3.org/2000/svg" p-id="1281" xmlns:xlink="http://www.w3.org/1999/xlink" width="200" height="200"><defs><style type="text/css"></style></defs><path d="M896.1 384H640V127.9c0-35.4-28.7-64-64-64H448c-35.4 0-64 28.7-64 64V384H127.9c-35.4 0-64 28.7-64 64v128c0 35.4 28.7 64 64 64H384v256.1c0 35.4 28.7 64 64 64h128c35.4 0 64-28.7 64-64V640h256.1c35.4 0 64-28.7 64-64V448c0-35.4-28.6-64-64-64z" p-id="1282"></path></svg>