<?xml version="1.0" standalone="no"?><!DOCTYPE svg PUBLIC "-//W3C//DTD SVG 1.1//EN" "http://www.w3.org/Graphics/SVG/1.1/DTD/svg11.dtd"><svg t="1595323078761" class="icon" viewBox="0 0 1024 1024" version="1.1" xmlns="http://www.w3.org/2000/svg" p-id="1144" xmlns:xlink="http://www.w3.org/1999/xlink" width="200" height="200"><defs><style type="text/css"></style></defs><path d="M896.1 255.3H768.7v-63.7c0-70.4-57-127.4-127.4-127.4H386.4c-70.4 0-127.4 57-127.4 127.4v63.7H131.6c-35.2 0-63.7 28.5-63.7 63.7s28.5 63.7 63.7 63.7v446c0 70.4 57 127.4 127.4 127.4h509.7c70.4 0 127.4-57 127.4-127.4v-446c35.2 0 63.7-28.5 63.7-63.7 0-35.1-28.5-63.7-63.7-63.7z m-509.7-63.7h254.8v63.7H386.4v-63.7z m382.3 637.1H259v-446h509.6v446z" p-id="1145"></path><path d="M334.6 446.5H462V765H334.6zM579.5 446.5h127.4V765H579.5z" p-id="1146"></path></svg>