<?xml version="1.0" standalone="no"?><!DOCTYPE svg PUBLIC "-//W3C//DTD SVG 1.1//EN" "http://www.w3.org/Graphics/SVG/1.1/DTD/svg11.dtd"><svg t="1595323070059" class="icon" viewBox="0 0 1024 1024" version="1.1" xmlns="http://www.w3.org/2000/svg" p-id="1007" xmlns:xlink="http://www.w3.org/1999/xlink" width="200" height="200"><defs><style type="text/css"></style></defs><path d="M466.8 557.2c12.5 12.5 28.8 18.7 45.2 18.7s32.7-6.2 45.2-18.7l383.4-383.4c25-25 25-65.4 0-90.4s-65.4-25-90.4 0L466.8 466.8c-24.9 25-24.9 65.4 0 90.4z" p-id="1008"></path><path d="M895.4 448.1c-35.3 0-63.9 28.6-63.9 63.9v319.5h-639v-639H512c35.3 0 63.9-28.6 63.9-63.9S547.3 64.7 512 64.7H192.5c-70.6 0-127.8 57.2-127.8 127.8v639c0 70.6 57.2 127.8 127.8 127.8h639c70.6 0 127.8-57.2 127.8-127.8V512c0-35.3-28.6-63.9-63.9-63.9z" p-id="1009"></path></svg>